<svg width="51" height="52" viewBox="0 0 51 52" fill="none" xmlns="http://www.w3.org/2000/svg">
<path d="M25.5 34.5C29.0208 34.5 31.875 31.6458 31.875 28.125C31.875 24.6042 29.0208 21.75 25.5 21.75C21.9792 21.75 19.125 24.6042 19.125 28.125C19.125 31.6458 21.9792 34.5 25.5 34.5Z" stroke="#CACACA" stroke-width="4" stroke-linecap="round" stroke-linejoin="round"/>
<path d="M44.625 23.875V38.75C44.625 39.8772 44.1772 40.9582 43.3802 41.7552C42.5832 42.5522 41.5022 43 40.375 43H10.625C9.49783 43 8.41683 42.5522 7.6198 41.7552C6.82277 40.9582 6.375 39.8772 6.375 38.75V19.625C6.375 18.4978 6.82277 17.4168 7.6198 16.6198C8.41683 15.8228 9.49783 15.375 10.625 15.375M10.625 15.375H14.875C16.0022 15.375 17.0832 14.9272 17.8802 14.1302C18.6772 13.3332 19.125 12.2522 19.125 11.125C19.125 10.5614 19.3489 10.0209 19.7474 9.6224C20.1459 9.22388 20.6864 9 21.25 9H25.5L10.625 15.375Z" stroke="#CACACA" stroke-width="4" stroke-linecap="round" stroke-linejoin="round"/>
<path d="M31.875 13.25H44.625" stroke="#CACACA" stroke-width="4" stroke-linecap="round" stroke-linejoin="round"/>
<path d="M38.25 6.875V19.625" stroke="#CACACA" stroke-width="4" stroke-linecap="round" stroke-linejoin="round"/>
</svg>
