<svg width="114" height="44" viewBox="0 0 114 44" fill="none" xmlns="http://www.w3.org/2000/svg">
<g clip-path="url(#clip0_532_848)">
<path fill-rule="evenodd" clip-rule="evenodd" d="M2.99282 19.0907C18.8208 20.1389 34.6848 20.214 50.5188 19.9034C36.3216 22.1319 22.0788 24.0782 7.89842 25.8201C5.43002 26.1242 7.88883 31.6333 9.92403 31.5854C27.8088 31.1532 45.6672 30.4375 63.5304 29.7542C62.6736 29.9561 61.8168 30.1593 60.9624 30.365C50.3988 32.8912 39.8904 35.6373 29.3856 38.4028C27.498 38.8998 29.9964 44.5538 32.2608 43.9546C43.5456 40.9846 54.8364 38.034 66.1956 35.3681C73.8888 33.5628 83.7876 33.3105 90.4824 28.6943C92.28 27.452 89.8836 22.9743 88.0308 23.0352C79.7772 23.3005 71.5284 23.6059 63.2796 23.9216C74.7036 21.9999 86.0808 19.8827 97.3536 17.5054C98.6004 17.244 98.4888 15.6147 98.0772 14.6169C96.1164 9.87011 96.2892 10.1108 89.634 11.0503C87.0216 11.4192 83.73 12.2319 81.0624 12.6615C78.8748 13.0148 76.5504 12.9734 74.3376 13.1106C69.2928 13.4173 64.2456 13.6632 59.1936 13.8456C49.4796 14.1976 39.7416 14.3892 30.0024 14.3296C36.8455 13.4717 43.6954 12.678 50.5512 11.9485C60.66 10.8705 70.788 9.96458 80.8944 8.8814C86.1576 8.31717 91.4268 7.73999 96.6612 6.9454C101.948 6.14305 107.227 5.13881 112.57 6.31646C115.402 6.93893 113.482 1.17623 111.503 0.741403C101.501 -1.46118 90.5364 1.84011 80.5524 2.93364C69.324 4.16564 58.0692 5.15305 46.8396 6.36305C35.8764 7.54587 24.9636 9.01599 14.0304 10.4201C10.7016 10.8498 1.93682 10.0034 0.220825 13.7356C-0.593975 15.5073 0.958825 18.9548 2.99282 19.0894V19.0907Z" fill="#3CCFCF"/>
</g>
<defs>
<clipPath id="clip0_532_848">
<rect width="114" height="44" fill="white"/>
</clipPath>
</defs>
</svg>
