<svg width="31" height="30" viewBox="0 0 31 30" fill="none" xmlns="http://www.w3.org/2000/svg">
<path d="M9.41675 8.75H8.16675C7.50371 8.75 6.86782 9.01339 6.39898 9.48223C5.93014 9.95107 5.66675 10.587 5.66675 11.25V22.5C5.66675 23.163 5.93014 23.7989 6.39898 24.2678C6.86782 24.7366 7.50371 25 8.16675 25H19.4167C20.0798 25 20.7157 24.7366 21.1845 24.2678C21.6534 23.7989 21.9167 23.163 21.9167 22.5V21.25" stroke="black" stroke-width="2" stroke-linecap="round" stroke-linejoin="round"/>
<path d="M26.148 8.23126C26.6403 7.73895 26.9169 7.07124 26.9169 6.37501C26.9169 5.67878 26.6403 5.01107 26.148 4.51876C25.6557 4.02645 24.988 3.74988 24.2917 3.74988C23.5955 3.74988 22.9278 4.02645 22.4355 4.51876L11.9167 15V18.75H15.6667L26.148 8.23126V8.23126Z" stroke="black" stroke-width="2" stroke-linecap="round" stroke-linejoin="round"/>
<path d="M20.6667 6.25L24.4167 10" stroke="black" stroke-width="2" stroke-linecap="round" stroke-linejoin="round"/>
</svg>
