<svg width="27" height="27" viewBox="0 0 27 27" fill="none" xmlns="http://www.w3.org/2000/svg">
<path d="M20.25 9H11.25C10.0074 9 9 10.0074 9 11.25V20.25C9 21.4926 10.0074 22.5 11.25 22.5H20.25C21.4926 22.5 22.5 21.4926 22.5 20.25V11.25C22.5 10.0074 21.4926 9 20.25 9Z" stroke="black" stroke-width="2" stroke-linecap="round" stroke-linejoin="round"/>
<path d="M18 9V6.75C18 6.15326 17.7629 5.58097 17.341 5.15901C16.919 4.73705 16.3467 4.5 15.75 4.5H6.75C6.15326 4.5 5.58097 4.73705 5.15901 5.15901C4.73705 5.58097 4.5 6.15326 4.5 6.75V15.75C4.5 16.3467 4.73705 16.919 5.15901 17.341C5.58097 17.7629 6.15326 18 6.75 18H9" stroke="black" stroke-width="2" stroke-linecap="round" stroke-linejoin="round"/>
</svg>
