<svg width="167" height="100" viewBox="0 0 167 100" fill="none" xmlns="http://www.w3.org/2000/svg">
<g clip-path="url(#clip0_532_854)">
<path fill-rule="evenodd" clip-rule="evenodd" d="M47.455 81.1486C45.0336 86.4872 42.365 91.6844 38.7864 96.3758C37.7571 97.7251 40.7121 100.892 41.5743 99.7601C45.2907 94.8908 48.115 89.5736 50.63 84.0265C51.2614 82.6336 48.1636 79.5872 47.455 81.1486ZM37.6957 78.0751C34.8457 81.0236 32.1214 84.0822 29.3278 87.0801C26.595 90.0136 23.5521 92.6908 20.9514 95.7351C19.8736 96.9972 22.765 100.158 23.7057 99.0572C26.3057 96.0115 29.3471 93.3344 32.0814 90.4015C34.8764 87.4044 37.5993 84.3451 40.4493 81.3965C41.5914 80.2158 38.7378 76.9958 37.6957 78.0751Z" fill="#F08700"/>
<path fill-rule="evenodd" clip-rule="evenodd" d="M26.9929 71.2158C18.2314 75.6844 9.11857 79.4244 0.353568 83.8544C-0.937146 84.5065 1.60571 87.9479 3.11571 87.1851C11.8786 82.7565 20.9929 79.0144 29.7536 74.5465C31.045 73.8872 28.4979 70.4472 26.9921 71.2158H26.9929Z" fill="#F08700"/>
<path fill-rule="evenodd" clip-rule="evenodd" d="M120.331 22.4443C121.804 16.7986 123.583 11.2886 126.326 6.08715C127.021 4.77073 123.972 1.7543 123.17 3.27573C120.426 8.47715 118.649 13.9879 117.175 19.6329C116.794 21.0929 119.948 23.915 120.331 22.4443ZM130.348 23.8843C132.639 20.3586 134.784 16.7414 137.016 13.1772C139.101 9.84715 141.516 6.71715 143.455 3.29573C144.188 2.00073 141.262 -1.12356 140.387 0.417868C138.449 3.83858 136.034 6.9693 133.949 10.3C131.717 13.8643 129.571 17.4807 127.28 21.0072C126.484 22.2322 129.365 25.3979 130.348 23.8843ZM166.106 12.095C167.355 11.1522 164.661 7.77358 163.375 8.74501C155.602 14.6114 147.37 19.855 139.607 25.7607C138.359 26.7093 141.058 30.0857 142.339 29.1107C150.101 23.2057 158.334 17.9614 166.106 12.095Z" fill="#F08700"/>
</g>
<defs>
<clipPath id="clip0_532_854">
<rect width="166.429" height="100" fill="white"/>
</clipPath>
</defs>
</svg>
