<svg width="33" height="32" viewBox="0 0 33 32" fill="none" xmlns="http://www.w3.org/2000/svg">
<path d="M13.4571 7.79289C13.0666 7.40237 12.4334 7.40237 12.0429 7.79289C11.6524 8.18342 11.6524 8.81658 12.0429 9.20711L13.4571 7.79289ZM20.25 16L20.9571 16.7071C21.3476 16.3166 21.3476 15.6834 20.9571 15.2929L20.25 16ZM12.0429 22.7929C11.6524 23.1834 11.6524 23.8166 12.0429 24.2071C12.4334 24.5976 13.0666 24.5976 13.4571 24.2071L12.0429 22.7929ZM30.5 16C30.5 23.732 24.232 30 16.5 30V32C25.3366 32 32.5 24.8366 32.5 16H30.5ZM16.5 30C8.76801 30 2.5 23.732 2.5 16H0.5C0.5 24.8366 7.66344 32 16.5 32V30ZM2.5 16C2.5 8.26801 8.76801 2 16.5 2V0C7.66344 0 0.5 7.16344 0.5 16H2.5ZM16.5 2C24.232 2 30.5 8.26801 30.5 16H32.5C32.5 7.16344 25.3366 0 16.5 0V2ZM12.0429 9.20711L19.5429 16.7071L20.9571 15.2929L13.4571 7.79289L12.0429 9.20711ZM19.5429 15.2929L12.0429 22.7929L13.4571 24.2071L20.9571 16.7071L19.5429 15.2929Z" fill="black"/>
</svg>
