<svg width="97" height="85" viewBox="0 0 97 85" fill="none" xmlns="http://www.w3.org/2000/svg">
<path d="M0.896484 6.40116C10.0206 8.83157 17.7447 10.0529 21.7783 21.7467M21.7783 21.7467C21.8515 21.9587 21.9234 22.1742 21.9941 22.3932C22.609 24.2978 23.5115 27.6928 22.4306 29.627C20.133 33.7387 14.1721 30.3538 16.2941 26.2876C17.5506 23.88 19.5072 22.4368 21.7783 21.7467ZM21.7783 21.7467C27.6614 19.9589 35.6552 23.224 39.058 27.8667C42.0641 31.9683 46.1111 39.7732 46.7939 45.571C47.6988 53.2541 48.4094 58.498 47.689 65.8746M47.689 65.8746C47.6172 66.6102 47.5311 67.3669 47.4296 68.1493C46.7098 73.6975 47.1073 69.1735 47.689 65.8746ZM47.689 65.8746C47.8607 64.9013 48.0484 64.0346 48.2281 63.5648C57.3008 39.8524 76.396 22.9489 96 22.3397M54.9987 16.8742L66.1625 1.48413M69.3322 58.3088C76.7643 55.4986 84.2605 53.4658 91.793 51.2325M71.0342 80.5196L82.9582 84" stroke="black" stroke-linecap="round"/>
</svg>
