<svg width="45" height="35" viewBox="0 0 45 35" fill="none" xmlns="http://www.w3.org/2000/svg">
<path fill-rule="evenodd" clip-rule="evenodd" d="M17.1285 1.51753C14.3435 0.135529 10.6785 0.647529 8.12853 2.19253C5.00853 4.08053 3.80253 7.44753 3.30853 10.5955C2.86952 13.4025 2.40653 16.9205 4.79253 19.2045C5.96253 20.3245 7.48553 20.7465 8.95953 20.6005C7.91153 23.8325 5.92953 26.7435 3.23453 29.1725C2.78453 29.4165 2.32553 29.6525 1.85453 29.8725C-1.30747 31.3465 1.37253 35.5125 4.51653 34.2725C5.13338 34.2299 5.72179 33.9969 6.20053 33.6055C6.39053 33.4515 6.57253 33.2925 6.75752 33.1355C12.4975 29.9155 16.8145 25.0485 19.1925 19.4015C21.1925 14.6525 23.3795 4.61953 17.1275 1.51753H17.1285ZM44.2495 11.0385C42.9325 7.68753 39.4035 5.33053 35.1595 5.94653C30.3695 6.64153 26.9445 10.7615 25.3995 14.4445C23.9415 17.9245 24.8455 22.4395 29.4555 23.7195C31.3935 24.2575 33.4855 24.1015 35.4035 23.4795C33.6285 25.6135 31.4055 27.5005 29.1405 29.0185C26.1855 30.9985 30.3395 34.5135 33.2655 32.5535C40.2085 27.9035 47.3655 18.9695 44.2495 11.0385Z" fill="#F08700"/>
</svg>
