<svg width="53" height="54" viewBox="0 0 53 54" fill="none" xmlns="http://www.w3.org/2000/svg">
<path fill-rule="evenodd" clip-rule="evenodd" d="M31.9758 12.0356C31.7478 8.80863 30.4068 4.30563 27.1298 2.05563C23.9238 -0.145368 18.8878 0.319632 15.1868 1.42763C6.94876 3.89363 2.03476 10.3256 0.799764 16.8196C0.496772 18.4469 0.343465 20.0984 0.341763 21.7536C-0.824237 30.0616 1.00576 38.4416 5.64076 46.1456C7.22376 48.7776 11.8328 47.1556 12.0978 44.7976L14.1958 26.1216C15.5243 26.1883 16.8547 26.0343 18.1328 25.6656C20.6818 26.2626 23.3978 26.0526 26.0408 24.4476C29.2278 22.5116 31.2178 18.7176 31.7118 15.1206C31.9538 14.1206 32.0498 13.0846 31.9758 12.0346V12.0356ZM42.6058 31.4996C42.4975 31.439 42.3867 31.3829 42.2738 31.3316C42.2938 31.1806 42.3238 30.9516 42.3478 30.7166C42.4748 30.6426 42.6038 30.5706 42.7378 30.4996C42.7698 30.8596 42.7228 31.2706 42.6058 31.4996ZM48.3298 24.3036C47.5298 23.6286 46.1498 23.3206 45.0368 23.6066C44.5148 23.7396 44.0138 23.8966 43.5228 24.0666C35.4958 21.4966 30.7748 30.5646 30.1328 35.6816C29.3308 42.0616 32.5328 48.6856 38.6428 52.8366C40.5968 54.1646 44.8028 53.4836 44.4218 50.9166C43.9791 47.9439 43.7004 44.949 43.5868 41.9456C44.2788 41.8039 44.953 41.5855 45.5968 41.2946C53.0898 37.8996 54.0388 29.1266 48.3298 24.3046V24.3036Z" fill="#F08700"/>
</svg>
