<svg width="211" height="21" viewBox="0 0 211 21" fill="none" xmlns="http://www.w3.org/2000/svg">
<path d="M2 15.6781C5.77122 13.5132 11.3826 8.90666 18.122 10.3876C22.7676 11.4085 24.6567 14.6925 28.494 16.324C34.5079 18.8809 41.4799 14.3745 45.0838 12.0332C45.7748 11.5842 52.2361 6.05335 53.7225 6.77348C57.7879 8.74307 56.9777 13.3032 61.2608 15.4628C69.3064 19.5194 87.8967 -1.61065 93.4498 2.54418C96.6106 4.90916 96.8543 11.5579 102.089 12.6637C109.668 14.265 120.726 8.32005 127.014 6.48127C127.661 6.29205 131.684 4.74826 132.544 5.26631C135.67 7.1482 135.608 10.7991 137.496 13.079C142.683 19.3412 161.754 9.62925 168.365 8.63438C170.582 8.30074 170.478 9.58494 171.254 10.5722C174.431 14.6163 178.726 15.8353 186.605 15.555C191.254 15.3897 196.156 14.1163 200.801 14.3555C205.286 14.5864 206.991 17.0602 209 19" stroke="#6FC6EB" stroke-width="3" stroke-linecap="round"/>
</svg>
