<svg width="170" height="163" viewBox="0 0 170 163" fill="none" xmlns="http://www.w3.org/2000/svg">
<path d="M64.9893 4.716C65.1152 3.68239 66.54 3.50541 66.9149 4.47681L78.25 33.8438C78.5039 34.5016 79.3406 34.6971 79.8597 34.2199L111.679 4.97204C112.44 4.27238 113.633 5.0467 113.303 6.02673L103.053 36.5363C102.78 37.3483 103.588 38.1051 104.381 37.7799L134.876 25.2666C135.886 24.8521 136.735 26.1256 135.963 26.8984L114.036 48.8579C113.517 49.3772 113.716 50.2595 114.407 50.5063L152.953 64.2707C154.022 64.6526 153.728 66.2388 152.593 66.2122L112.88 65.2792C111.93 65.2569 111.488 66.4478 112.222 67.0513L136.216 86.781C137.034 87.4536 136.382 88.7695 135.352 88.5268L94.0361 78.7965C93.1538 78.5887 92.4724 79.5679 92.9738 80.323L115.595 114.392C116.222 115.337 115.04 116.431 114.146 115.733L76.5927 86.4015C76.1066 86.0218 75.396 86.1684 75.0999 86.7095L61.3598 111.817C60.9171 112.626 59.7084 112.455 59.5067 111.555L53.226 83.5339C53.0469 82.735 52.036 82.4781 51.4972 83.0946L32.0559 105.341C31.3476 106.152 30.0344 105.424 30.3456 104.394L41.2725 68.2088C41.3859 67.8333 41.2693 67.4262 40.9744 67.1677L10.1082 40.1095C9.23089 39.3405 10.1567 37.9475 11.2055 38.4586L43.3434 54.1206C44.0889 54.4839 44.9272 53.8341 44.7613 53.0216L37.5307 17.6087C37.3239 16.5955 38.6029 15.9731 39.2726 16.7611L59.0038 39.9817C59.5683 40.646 60.6532 40.3204 60.7585 39.4551L64.9893 4.716Z" fill="#74BEB6" fill-opacity="0.35"/>
<path d="M10.0663 83.282C10.3155 84.7335 11.6943 85.7081 13.1458 85.4589C14.5973 85.2096 15.5719 83.8309 15.3227 82.3794C15.0734 80.9279 13.6947 79.9532 12.2432 80.2025C10.7917 80.4517 9.81703 81.8305 10.0663 83.282ZM104.657 46.2801L99.1975 44.4016L100.3 50.0688L104.657 46.2801ZM80.1568 54.2801L79.9369 53.8311L80.1568 54.2801ZM69.9049 55.6408L69.883 55.1413L69.8527 55.1426L69.8228 55.1476L69.9049 55.6408ZM69.7739 75.2976C67.2654 75.9789 65.3413 76.262 63.9186 76.2394C62.4853 76.2167 61.6407 75.8857 61.189 75.4313C60.7567 74.9965 60.5888 74.349 60.749 73.4364C60.9104 72.5167 61.3977 71.3965 62.1817 70.1387C65.3239 65.0972 72.8706 58.4053 80.3767 54.7292L79.9369 53.8311C72.2951 57.5737 64.5918 64.3812 61.333 69.6097C60.5167 70.9194 59.9568 72.1649 59.764 73.2636C59.5699 74.3694 59.7407 75.3929 60.4798 76.1364C61.1995 76.8603 62.3592 77.2148 63.9028 77.2393C65.457 77.264 67.4824 76.9561 70.036 76.2627L69.7739 75.2976ZM80.3767 54.7292C88.4974 50.752 95.8923 48.6509 100.352 47.6269L100.128 46.6522C95.6164 47.6882 88.1446 49.8113 79.9369 53.8311L80.3767 54.7292ZM12.6945 82.8307C12.9766 83.2434 12.9767 83.2434 12.9769 83.2432C12.9772 83.2431 12.9775 83.2428 12.978 83.2425C12.979 83.2418 12.9805 83.2408 12.9825 83.2395C12.9865 83.2367 12.9926 83.2326 13.0007 83.227C13.017 83.216 13.0414 83.1994 13.0738 83.1774C13.1386 83.1335 13.2354 83.068 13.3627 82.9824C13.6174 82.8112 13.9945 82.5593 14.4828 82.2371C15.4594 81.5926 16.8811 80.6673 18.6594 79.5446C22.2164 77.299 27.1984 74.2652 32.8988 71.112C44.3168 64.7961 58.5546 58.0371 69.987 56.134L69.8228 55.1476C58.2075 57.0811 43.8401 63.9171 32.4148 70.237C26.6935 73.4017 21.6944 76.4459 18.1256 78.699C16.341 79.8256 14.9137 80.7547 13.9321 81.4024C13.4412 81.7262 13.0618 81.9798 12.8048 82.1525C12.6763 82.2389 12.5785 82.3051 12.5126 82.3497C12.4796 82.3721 12.4547 82.389 12.4379 82.4004C12.4295 82.4061 12.4232 82.4105 12.4189 82.4134C12.4168 82.4148 12.4152 82.416 12.4141 82.4167C12.4135 82.4171 12.4131 82.4174 12.4128 82.4176C12.4125 82.4178 12.4123 82.4179 12.6945 82.8307ZM69.9268 56.1403C75.1281 55.912 78.9177 56.7084 81.3747 58.0631C83.8162 59.4093 84.9198 61.2859 84.877 63.2919C84.8335 65.3301 83.6049 67.6394 81.0765 69.804C78.5553 71.9626 74.783 73.9373 69.7739 75.2976L70.036 76.2627C75.1509 74.8736 79.067 72.8409 81.7269 70.5637C84.3797 68.2925 85.825 65.7379 85.8768 63.3133C85.9292 60.8566 84.5495 58.6717 81.8575 57.1874C79.181 55.7116 75.1869 54.9085 69.883 55.1413L69.9268 56.1403Z" fill="black"/>
</svg>
