<svg width="704" height="345" viewBox="0 0 704 345" fill="none" xmlns="http://www.w3.org/2000/svg">
<path d="M0.333333 11C0.333333 16.891 5.10896 21.6667 11 21.6667C16.891 21.6667 21.6667 16.891 21.6667 11C21.6667 5.10896 16.891 0.333333 11 0.333333C5.10896 0.333333 0.333333 5.10896 0.333333 11ZM272.594 61.9796C272.594 67.8706 277.37 72.6463 283.261 72.6463C289.152 72.6463 293.928 67.8706 293.928 61.9796C293.928 56.0886 289.152 51.3129 283.261 51.3129C277.37 51.3129 272.594 56.0886 272.594 61.9796ZM272.875 62.0239C272.875 67.9149 277.651 72.6905 283.542 72.6905C289.433 72.6905 294.209 67.9149 294.209 62.0239C294.209 56.1328 289.433 51.3572 283.542 51.3572C277.651 51.3572 272.875 56.1328 272.875 62.0239ZM449.201 225.516C449.201 231.407 453.977 236.182 459.868 236.182C465.759 236.182 470.534 231.407 470.534 225.516C470.534 219.625 465.759 214.849 459.868 214.849C453.977 214.849 449.201 219.625 449.201 225.516ZM449.036 225.078C449.036 230.969 453.812 235.745 459.703 235.745C465.594 235.745 470.369 230.969 470.369 225.078C470.369 219.187 465.594 214.412 459.703 214.412C453.812 214.412 449.036 219.187 449.036 225.078ZM682.333 334C682.333 339.891 687.109 344.667 693 344.667C698.891 344.667 703.667 339.891 703.667 334C703.667 328.109 698.891 323.333 693 323.333C687.109 323.333 682.333 328.109 682.333 334ZM10.6319 12.9658L282.893 63.9454L283.629 60.0138L11.3681 9.03416L10.6319 12.9658ZM282.182 63.4904L458.508 226.982L461.228 224.049L284.902 60.5573L282.182 63.4904ZM458.857 226.891L692.154 335.812L693.846 332.188L460.549 223.266L458.857 226.891Z" fill="url(#paint0_linear_569_14)"/>
<defs>
<linearGradient id="paint0_linear_569_14" x1="11" y1="11" x2="693.664" y2="332.595" gradientUnits="userSpaceOnUse">
<stop stop-color="#3CCFCF"/>
<stop offset="0.368829" stop-color="#F08700"/>
<stop offset="0.657289" stop-color="#FFCD1F"/>
<stop offset="1" stop-color="#48AF73"/>
</linearGradient>
</defs>
</svg>
