<svg width="145" height="100" viewBox="0 0 145 100" fill="none" xmlns="http://www.w3.org/2000/svg">
<g clip-path="url(#clip0_501_515)">
<path fill-rule="evenodd" clip-rule="evenodd" d="M137.698 32.663C137.622 31.7533 137.48 30.8503 137.274 29.961C136.617 27.158 135.246 24.863 133.689 22.5C132.088 20.068 130.937 17.433 129.04 15.194C125.522 11.046 120.704 8.538 115.567 7.074C114.625 6.804 113.681 6.52201 112.735 6.234C113.438 6.30038 114.141 6.37973 114.841 6.472C117.448 6.822 119.568 7.06001 122.17 6.984C124.519 6.91501 126.853 7.229 129.055 8.08101C133.254 9.705 138.549 14.451 138.864 19.253C139.143 23.522 138.807 28.288 137.698 32.663ZM121.827 62.85C117.979 67.702 114.375 72.661 109.44 76.464C104.703 80.117 99.39 82.221 94.061 84.761C82.123 90.451 69.432 91.915 56.507 93.701C53.403 94.131 50.397 93.66 47.287 93.355C46.929 93.32 46.575 93.289 46.22 93.255C51.13 92.68 56.081 91.689 61.053 90.833C75.128 88.413 88.147 82.96 100.233 75.275C105.892 71.676 111.928 68.449 117.147 64.197C120.346 61.592 123.442 58.674 126.429 55.711C125.114 58.191 123.629 60.58 121.827 62.851V62.85ZM11.274 73.207C9.837 70.727 7.887 68.891 6.961 66.055C4.966 59.955 6.895 54.437 10.291 49.373C13.998 43.845 17.381 38.259 22.262 33.697C26.429 29.7957 31.0558 26.4165 36.04 23.634C41.0357 20.8505 46.1233 18.2351 51.294 15.792C56.694 13.248 62.399 12.318 67.958 10.374C72.4485 8.80452 77.1066 7.7635 81.838 7.272C81.214 7.56 80.591 7.84801 79.971 8.15201L70.136 12.98C58.657 17.412 48.62 24.218 38.942 31.887C33.99 35.81 29.713 40.659 25.532 45.385C21.803 49.595 17.292 55.505 16.016 61.137C15.357 64.042 16.003 67.645 16.058 70.632C16.123 74.172 17.003 76.756 18.672 79.902C19.0375 80.5885 19.4203 81.2658 19.82 81.933C18.042 81.206 16.4 80.445 14.916 79C13.156 77.29 12.464 75.263 11.274 73.207ZM21.115 62.071C21.204 56.088 25.468 50.33 29.47 46.127C29.88 45.696 30.287 45.26 30.692 44.823C30.0888 45.8571 29.4987 46.8989 28.922 47.948C25.722 53.717 23.32 59.948 21.9 66.402C21.6825 67.4054 21.4881 68.4137 21.317 69.426C20.991 66.999 21.08 64.45 21.115 62.071ZM131.098 45.12C130.955 45.49 130.81 45.853 130.667 46.219C129.326 47.9076 127.859 49.4924 126.279 50.96C122.048 54.879 118.158 59.244 113.475 62.647C108.948 65.936 103.914 68.707 99.183 71.707C93.976 75.009 88.459 77.844 82.784 80.232C76.97 82.68 71.151 84.456 64.951 85.522C58.226 86.677 51.348 88.363 44.535 88.795C40.461 89.055 36.412 88.667 32.512 87.605C30.093 85.309 27.963 82.565 26.126 80.019C25.899 79.703 25.683 79.372 25.462 79.047C25.498 68.779 27.609 58.703 32.367 49.52C33.637 47.069 35.007 44.544 36.674 42.343C38.864 39.451 41.941 37.153 44.633 34.735C49.156 30.675 53.672 25.412 59.087 22.653C61.812 21.263 64.567 19.803 67.353 18.348C68.6927 17.8146 70.0447 17.3128 71.408 16.843C72.314 16.532 73.395 15.82 74.066 14.926C80.462 11.781 87.03 8.993 93.799 7.436C98.405 8.153 102.841 9.54 107.459 10.848C112.435 12.258 117.413 13.451 121.517 16.812C125.227 19.852 127.233 24.092 129.811 28.015C133.206 33.18 133.282 39.462 131.098 45.12ZM135.829 4.607C131.019 1.606 126.575 2.408 121.262 1.89C114.065 1.189 107.349 0.447005 100.113 1.6C99.074 1.76776 98.0393 1.96149 97.01 2.181C95.902 2.02754 94.7875 1.92543 93.67 1.875C86.6988 1.5881 79.7269 2.42376 73.021 4.35C66.46 6.233 59.704 7.855 53.41 10.58C50.475 11.848 47.805 13.484 44.999 14.992C41.78 16.722 38.384 18.04 35.209 19.878C29.6942 23.0713 24.5603 26.8811 19.906 31.234C14.376 36.402 10.558 42.582 6.356 48.846C2.84 54.09 0.462001 59.317 1.106 65.844C1.658 71.412 5.167 76.147 8.089 80.705C11.212 85.578 16.449 87.039 21.274 89.63C23.4834 90.8168 25.8199 91.7501 28.239 92.412C28.7988 92.9227 29.3768 93.413 29.972 93.882C35.517 98.232 41.59 98.19 48.319 98.846C55.702 99.566 64.122 97.594 71.439 96.326C78.263 95.144 84.904 93.073 91.257 90.303C97.124 87.743 103.101 85.215 108.396 81.557C114.031 77.666 118.363 72.81 122.599 67.469C124.816 64.675 127.527 61.906 129.415 58.877C131.311 55.833 132.448 52.106 133.851 48.802C134.15 48.097 134.446 47.392 134.735 46.688C136.984 43.757 138.915 40.596 140.498 37.258C141.657 34.804 142.895 32.225 143.248 29.528C143.768 25.543 143.741 21.392 143.985 17.379C144.298 12.204 140.078 7.255 135.83 4.607H135.829Z" fill="#FFCD1F"/>
<path d="M137.274 29.961L138.247 29.734V29.733L137.274 29.961ZM133.689 22.5L132.854 23.05L133.689 22.5ZM129.04 15.194L129.803 14.548L129.04 15.194ZM115.567 7.074L115.292 8.034L115.567 7.074ZM112.735 6.234L112.833 5.238L112.443 7.19L112.735 6.233V6.234ZM114.841 6.472L114.707 7.463H114.708L114.841 6.473V6.472ZM122.17 6.984L122.141 5.984H122.14L122.17 6.984ZM129.055 8.081L128.694 9.013L129.055 8.081ZM138.864 19.253L139.862 19.187L138.864 19.253ZM109.44 76.464L108.829 75.672L109.44 76.464ZM94.061 84.761L93.631 83.858L94.061 84.761ZM56.507 93.7L56.37 92.71L56.507 93.7ZM47.287 93.354L47.384 92.359L47.286 93.354H47.287ZM46.22 93.254L46.103 92.261L46.126 94.25L46.22 93.254ZM61.053 90.832L60.883 89.847L61.053 90.832ZM100.233 75.274L99.696 74.43L100.233 75.274ZM117.147 64.196L117.779 64.971L117.147 64.196ZM126.429 55.71L127.313 56.178L125.725 55L126.429 55.71ZM6.961 66.055L7.911 65.745L6.961 66.055ZM10.291 49.373L9.461 48.816L10.291 49.373ZM22.262 33.697L22.945 34.427L22.262 33.697ZM36.04 23.634L36.527 24.508L36.04 23.634ZM51.294 15.792L51.72 16.697L51.294 15.792ZM67.958 10.374L67.628 9.43L67.958 10.374ZM81.838 7.272L82.257 8.18L81.735 6.277L81.838 7.272ZM79.971 8.152L79.531 7.253L79.971 8.151V8.152ZM70.136 12.98L70.496 13.912L70.537 13.897L70.577 13.877L70.137 12.98H70.136ZM38.942 31.887L39.562 32.67H39.563L38.942 31.886V31.887ZM25.532 45.385L26.28 46.047L25.531 45.385H25.532ZM16.016 61.137L15.04 60.917L16.016 61.137ZM16.058 70.632L15.058 70.65L16.058 70.632ZM18.672 79.902L17.788 80.371L18.672 79.902ZM19.82 81.933L19.442 82.859L22.215 83.992L20.679 81.421L19.821 81.933H19.82ZM14.916 79L15.613 78.284L14.916 79ZM29.47 46.127L28.746 45.437L29.47 46.127ZM30.692 44.823L31.554 45.33L29.959 44.143L30.692 44.823ZM28.922 47.948L29.796 48.433L28.921 47.948H28.922ZM21.9 66.402L20.924 66.187L21.9 66.402ZM21.317 69.426L20.326 69.559L22.302 69.596L21.317 69.426ZM130.667 46.219L131.449 46.842L131.543 46.724L131.598 46.584L130.667 46.219ZM126.279 50.96L126.959 51.694L126.279 50.96ZM113.475 62.647L114.063 63.457V63.456L113.475 62.647ZM99.183 71.707L99.719 72.552L99.183 71.707ZM82.784 80.232L82.396 79.311L82.784 80.232ZM64.951 85.522L65.12 86.507L64.95 85.522H64.951ZM44.535 88.795L44.471 87.797L44.535 88.795ZM32.512 87.605L31.823 88.33L32.006 88.503L32.249 88.569L32.512 87.604V87.605ZM26.126 80.019L25.315 80.603V80.604L26.126 80.019ZM25.462 79.047L24.462 79.044L24.461 79.354L24.635 79.61L25.462 79.047ZM32.367 49.52L33.254 49.98L32.367 49.52ZM36.674 42.343L37.471 42.947L36.674 42.343ZM44.633 34.735L43.965 33.991L44.633 34.735ZM59.087 22.653L59.541 23.544L59.087 22.653ZM67.353 18.348L66.983 17.419L66.935 17.438L66.89 17.462L67.353 18.348ZM71.408 16.843L71.083 15.897L71.408 16.843ZM74.066 14.926L73.625 14.029L73.41 14.135L73.267 14.325L74.067 14.926H74.066ZM93.8 7.436L93.954 6.448L93.764 6.418L93.576 6.462L93.8 7.437V7.436ZM107.46 10.848L107.733 9.886L107.46 10.848ZM121.518 16.812L122.151 16.039L121.518 16.812ZM129.812 28.015L128.977 28.564L129.812 28.014V28.015ZM121.262 1.89L121.359 0.893999L121.262 1.89ZM100.113 1.6L100.27 2.588H100.271L100.113 1.6ZM97.01 2.181L96.876 3.172L97.047 3.195L97.216 3.16L97.01 2.181ZM93.67 1.875L93.628 2.875H93.629L93.67 1.875ZM73.021 4.35L73.297 5.311L73.021 4.351V4.35ZM53.41 10.58L53.807 11.497L53.41 10.579V10.58ZM44.999 14.992L44.525 14.112L44.999 14.992ZM35.209 19.878L35.709 20.744L35.209 19.878ZM19.905 31.234L20.588 31.964L19.905 31.234ZM6.355 48.846L5.525 48.289L6.355 48.846ZM1.105 65.844L0.110001 65.942L1.106 65.844H1.105ZM8.088 80.705L8.93 80.165L8.088 80.705ZM21.273 89.63L21.746 88.749L21.273 89.629V89.63ZM28.238 92.412L28.91 91.672L28.733 91.511L28.503 91.448L28.238 92.412ZM29.971 93.882L30.588 93.095L29.971 93.881V93.882ZM48.318 98.846L48.221 99.841L48.318 98.846ZM71.438 96.326L71.268 95.341L71.438 96.326ZM91.256 90.303L91.656 91.219L91.256 90.303ZM108.395 81.557L107.827 80.734L108.395 81.557ZM122.598 67.469L121.814 66.848L122.598 67.469ZM129.414 58.877L130.262 59.407L129.414 58.877ZM133.85 48.802L134.77 49.192L133.85 48.802ZM134.734 46.688L133.94 46.08L133.859 46.186L133.809 46.309L134.734 46.688ZM140.497 37.258L139.593 36.83L140.497 37.257V37.258ZM143.247 29.528L144.238 29.658L143.247 29.528ZM143.984 17.379L144.982 17.44L143.984 17.38V17.379ZM138.695 32.577C138.614 31.6198 138.464 30.6697 138.247 29.734L136.3 30.188C136.495 31.031 136.629 31.8868 136.702 32.749L138.695 32.577ZM138.247 29.733C137.548 26.746 136.09 24.326 134.524 21.95L132.854 23.05C134.402 25.4 135.687 27.57 136.3 30.189L138.247 29.733ZM134.524 21.95C133.744 20.764 133.085 19.548 132.339 18.27C131.607 17.015 130.809 15.735 129.803 14.548L128.277 15.841C129.168 16.891 129.895 18.049 130.612 19.279C131.317 20.486 132.034 21.804 132.854 23.049L134.524 21.95ZM129.803 14.548C126.118 10.203 121.102 7.612 115.841 6.112L115.292 8.035C120.306 9.465 124.926 11.889 128.277 15.841L129.803 14.548ZM115.841 6.112C114.908 5.845 113.97 5.565 113.028 5.277L112.443 7.19C113.393 7.48 114.343 7.764 115.292 8.035L115.841 6.112ZM112.638 7.229C113.329 7.29436 114.019 7.37237 114.707 7.463L114.975 5.481C114.263 5.38689 113.548 5.30588 112.833 5.238L112.638 7.228V7.229ZM114.708 7.464C117.327 7.814 119.513 8.062 122.199 7.984L122.14 5.984C119.623 6.058 117.57 5.829 114.974 5.481L114.708 7.464ZM122.199 7.984C124.441 7.918 126.638 8.218 128.694 9.014L129.416 7.148C127.067 6.24 124.597 5.913 122.141 5.984L122.199 7.984ZM128.694 9.014C130.642 9.767 132.894 11.271 134.69 13.164C136.498 15.068 137.73 17.244 137.866 19.318L139.862 19.188C139.683 16.458 138.11 13.862 136.141 11.787C134.161 9.7 131.666 8.019 129.416 7.148L128.694 9.013V9.014ZM137.866 19.318C138.139 23.495 137.809 28.155 136.729 32.418L138.668 32.909C139.805 28.421 140.147 23.549 139.862 19.187L137.866 19.318ZM121.044 62.228C117.155 67.131 113.642 71.963 108.829 75.672L110.05 77.257C115.107 73.359 118.803 68.273 122.611 63.472L121.044 62.229V62.228ZM108.829 75.672C104.202 79.24 99.039 81.28 93.631 83.858L94.491 85.663C99.74 83.162 105.203 80.993 110.051 77.256L108.829 75.672ZM93.631 83.858C81.861 89.468 69.343 90.918 56.37 92.711L56.644 94.691C69.523 92.911 82.384 91.435 94.491 85.663L93.631 83.858ZM56.37 92.711C53.417 93.119 50.575 92.672 47.384 92.361L47.189 94.351C50.219 94.647 53.389 95.142 56.644 94.691L56.37 92.711ZM47.384 92.361C47.024 92.325 46.662 92.292 46.314 92.26L46.126 94.25C46.487 94.285 46.834 94.316 47.189 94.35L47.384 92.36V92.361ZM46.336 94.248C51.282 93.669 56.287 92.668 61.222 91.818L60.883 89.848C55.875 90.709 50.978 91.691 46.103 92.262L46.336 94.248ZM61.222 91.819C75.447 89.374 88.589 83.864 100.769 76.119L99.696 74.431C87.706 82.056 74.81 87.454 60.883 89.848L61.223 91.819H61.222ZM100.769 76.119C106.342 72.575 112.499 69.273 117.779 64.972L116.516 63.422C111.356 67.625 105.443 70.777 99.696 74.431L100.769 76.119ZM117.779 64.972C121.013 62.338 124.136 59.395 127.134 56.421L125.725 55C122.749 57.953 119.678 60.845 116.516 63.42L117.779 64.971V64.972ZM125.546 55.242C124.252 57.682 122.799 60.016 121.044 62.229L122.611 63.472C124.458 61.142 125.976 58.699 127.313 56.179L125.546 55.242ZM12.139 72.706C11.393 71.418 10.487 70.256 9.746 69.193C8.983 68.098 8.329 67.025 7.911 65.745L6.011 66.365C6.518 67.922 7.303 69.185 8.106 70.336C8.931 71.52 9.718 72.516 10.409 73.709L12.139 72.706ZM7.911 65.744C6.051 60.058 7.811 54.867 11.121 49.93L9.461 48.816C5.98 54.007 3.881 59.853 6.011 66.366L7.911 65.745V65.744ZM11.121 49.93C14.866 44.346 18.171 38.89 22.945 34.427L21.579 32.967C16.592 37.627 13.13 43.344 9.461 48.816L11.121 49.93ZM22.945 34.427C27.0521 30.5812 31.6124 27.25 36.525 24.507L35.553 22.76C30.4979 25.582 25.8053 29.0092 21.579 32.966L22.945 34.427ZM36.525 24.507C41.5011 21.7349 46.5686 19.1301 51.719 16.697L50.866 14.887C45.6753 17.3398 40.5681 19.9656 35.553 22.76L36.526 24.508L36.525 24.507ZM51.719 16.697C54.343 15.461 57.055 14.61 59.839 13.82C62.601 13.036 65.469 12.303 68.287 11.318L67.627 9.43C64.885 10.39 62.122 11.093 59.292 11.896C56.484 12.693 53.644 13.579 50.866 14.887L51.719 16.697ZM68.287 11.318C72.7041 9.77431 77.286 8.75041 81.94 8.267L81.734 6.277C76.9252 6.7766 72.1909 7.83473 67.627 9.43L68.287 11.318ZM81.418 6.364C80.795 6.651 80.162 6.944 79.53 7.254L80.41 9.049C81.022 8.75238 81.6374 8.4627 82.256 8.18L81.418 6.364ZM79.53 7.254L69.695 12.082L70.575 13.877L80.411 9.049L79.53 7.254ZM69.775 12.047C58.16 16.532 48.032 23.408 38.32 31.103L39.562 32.67C49.207 25.028 59.152 18.292 70.494 13.912L69.774 12.047H69.775ZM38.32 31.103C33.286 35.09 28.952 40.01 24.781 44.722L26.279 46.047C30.473 41.309 34.691 36.529 39.562 32.67L38.32 31.103ZM24.783 44.722C21.053 48.934 16.379 55.012 15.04 60.916L16.99 61.359C18.206 55.999 22.553 50.256 26.28 46.047L24.782 44.722H24.783ZM15.04 60.916C14.68 62.508 14.683 64.249 14.77 65.906C14.861 67.633 15.03 69.164 15.058 70.65L17.058 70.613C17.03 69.113 16.849 67.349 16.768 65.801C16.683 64.184 16.693 62.671 16.991 61.358L15.041 60.916H15.04ZM15.058 70.65C15.127 74.39 16.068 77.13 17.788 80.37L19.555 79.434C17.937 76.383 17.119 73.954 17.058 70.614L15.058 70.65ZM17.788 80.371C18.155 81.061 18.548 81.754 18.962 82.446L20.679 81.421C20.2879 80.7678 19.9131 80.1049 19.555 79.433L17.789 80.371H17.788ZM20.198 81.008C18.442 80.29 16.952 79.587 15.613 78.284L14.218 79.717C15.848 81.303 17.642 82.123 19.442 82.859L20.199 81.008H20.198ZM15.613 78.283C14.831 77.523 14.273 76.682 13.756 75.748C13.495 75.278 13.251 74.796 12.987 74.282C12.7178 73.7495 12.435 73.224 12.139 72.706L10.409 73.709C10.692 74.199 10.949 74.692 11.208 75.196C11.464 75.694 11.726 76.212 12.007 76.718C12.573 77.739 13.241 78.767 14.219 79.718L15.613 78.283ZM22.115 62.086C22.198 56.518 26.205 51.006 30.195 46.816L28.746 45.437C24.731 49.654 20.21 55.659 20.116 62.056L22.116 62.086H22.115ZM30.195 46.816C30.609 46.381 31.019 45.941 31.425 45.503L29.959 44.143C29.554 44.579 29.152 45.011 28.746 45.437L30.194 46.817L30.195 46.816ZM29.83 44.316C29.2223 45.3574 28.628 46.4065 28.047 47.463L29.796 48.433C30.361 47.413 30.944 46.367 31.554 45.33L29.83 44.316ZM28.047 47.463C24.803 53.313 22.365 59.634 20.924 66.187L22.877 66.617C24.275 60.261 26.642 54.121 29.796 48.433L28.046 47.463H28.047ZM20.924 66.187C20.7027 67.2056 20.505 68.2292 20.331 69.257L22.302 69.596C22.474 68.596 22.66 67.602 22.877 66.616L20.924 66.187ZM22.308 69.293C21.995 66.958 22.079 64.5 22.115 62.086L20.115 62.056C20.081 64.4 19.988 67.04 20.325 69.559L22.308 69.293ZM130.166 44.76C130.023 45.128 129.883 45.48 129.736 45.855L131.598 46.585C131.738 46.227 131.888 45.852 132.031 45.481L130.166 44.76ZM129.885 45.597C128.575 47.2458 127.143 48.7935 125.6 50.227L126.959 51.695C128.575 50.1925 130.076 48.5706 131.449 46.843L129.885 45.597ZM125.6 50.227C121.271 54.237 117.509 58.48 112.887 61.839L114.063 63.457C118.807 60.009 122.825 55.523 126.959 51.695L125.6 50.227ZM112.887 61.839C108.39 65.107 103.455 67.814 98.647 70.864L99.719 72.553C104.374 69.6 109.506 66.768 114.063 63.457L112.887 61.839ZM98.647 70.864C93.491 74.134 88.024 76.943 82.397 79.312L83.172 81.155C88.894 78.747 94.46 75.887 99.719 72.553L98.648 70.863L98.647 70.864ZM82.397 79.312C76.644 81.732 70.899 83.486 64.781 84.537L65.12 86.508C71.404 85.428 77.295 83.628 83.172 81.155L82.396 79.312H82.397ZM64.78 84.535C57.959 85.707 51.214 87.369 44.47 87.795L44.597 89.792C51.48 89.356 58.491 87.645 65.119 86.506L64.78 84.536V84.535ZM44.47 87.795C40.501 88.049 36.563 87.671 32.774 86.639L32.248 88.569C36.258 89.661 40.418 90.059 44.598 89.792L44.47 87.796V87.795ZM33.2 86.88C30.85 84.65 28.763 81.966 26.936 79.435L25.315 80.605C27.162 83.165 29.335 85.97 31.822 88.331L33.199 86.881L33.2 86.88ZM26.937 79.436C26.719 79.133 26.524 78.833 26.287 78.486L24.634 79.611C24.84 79.913 25.076 80.274 25.314 80.604L26.937 79.436ZM26.461 79.052C26.496 68.918 28.579 59.002 33.253 49.982L31.478 49.061C26.637 58.405 24.498 68.641 24.461 79.045L26.461 79.052ZM33.254 49.981C34.522 47.532 35.858 45.074 37.47 42.948L35.876 41.74C34.152 44.015 32.749 46.607 31.478 49.061L33.254 49.981ZM37.47 42.948C39.583 40.158 42.513 37.983 45.3 35.48L43.964 33.992C41.368 36.324 38.142 38.747 35.875 41.74L37.47 42.948ZM45.3 35.48C46.447 34.451 47.59 33.348 48.733 32.242C49.88 31.132 51.026 30.018 52.199 28.946C54.549 26.797 56.953 24.863 59.54 23.545L58.632 21.763C55.804 23.204 53.242 25.281 50.85 27.469C49.651 28.565 48.483 29.701 47.342 30.805C46.196 31.914 45.079 32.991 43.964 33.992L45.3 35.481V35.48ZM59.54 23.545C62.27 22.153 65.037 20.685 67.815 19.235L66.889 17.463C64.096 18.921 61.351 20.377 58.632 21.763L59.54 23.545ZM67.721 19.278C69.0465 18.7503 70.3842 18.2538 71.733 17.789L71.081 15.899C69.7026 16.3737 68.3355 16.8809 66.981 17.42L67.721 19.278ZM71.731 17.79C72.805 17.421 74.061 16.6 74.865 15.528L73.265 14.327C72.728 15.043 71.82 15.644 71.082 15.898L71.732 17.79H71.731ZM74.507 15.825C80.875 12.692 87.364 9.943 94.022 8.412L93.574 6.463C86.695 8.044 80.046 10.871 73.624 14.03L74.507 15.825ZM93.644 8.425C98.174 9.13 102.529 10.492 107.186 11.811L107.731 9.887C103.15 8.589 98.635 7.177 93.951 6.449L93.644 8.426V8.425ZM107.186 11.811C112.235 13.243 116.975 14.386 120.882 17.587L122.149 16.04C117.849 12.517 112.633 11.277 107.731 9.887L107.186 11.812V11.811ZM120.882 17.587C122.629 19.019 123.994 20.748 125.255 22.638C125.887 23.5996 126.501 24.5734 127.095 25.559C127.701 26.552 128.319 27.568 128.975 28.565L130.646 27.466C130.012 26.502 129.412 25.516 128.801 24.516C128.194 23.5073 127.567 22.5111 126.919 21.528C125.605 19.558 124.112 17.648 122.149 16.04L120.882 17.587ZM128.975 28.565C132.155 33.403 132.259 39.333 130.164 44.761L132.03 45.481C134.302 39.593 134.256 32.959 130.646 27.467L128.975 28.565ZM136.358 3.759C133.784 2.154 131.309 1.573 128.833 1.323C127.607 1.2 126.37 1.157 125.138 1.113C123.896 1.068 122.651 1.022 121.358 0.894999L121.164 2.886C122.527 3.019 123.83 3.066 125.066 3.111C126.312 3.156 127.483 3.197 128.633 3.313C130.91 3.543 133.062 4.061 135.299 5.456L136.358 3.759ZM121.358 0.894999C114.192 0.195999 107.342 -0.565001 99.956 0.611999L100.271 2.587C107.357 1.458 113.939 2.181 121.165 2.885L121.359 0.894999H121.358ZM99.957 0.611999C98.9012 0.7823 97.8499 0.979029 96.804 1.202L97.216 3.16C98.2291 2.94386 99.2474 2.75313 100.27 2.588L99.957 0.611999ZM97.143 1.19C96.0048 1.03248 94.8599 0.927705 93.712 0.875999L93.629 2.874C94.709 2.919 95.789 3.026 96.876 3.172L97.143 1.19ZM93.713 0.875999C86.6341 0.584811 79.5544 1.43364 72.745 3.39L73.297 5.312C79.8996 3.41542 86.7642 2.59259 93.628 2.875L93.713 0.876999V0.875999ZM72.745 3.39C66.241 5.256 59.385 6.905 53.012 9.662L53.806 11.498C60.023 8.808 66.676 7.212 73.297 5.312L72.745 3.39ZM53.012 9.661C50.026 10.953 47.265 12.639 44.524 14.111L45.471 15.873C48.343 14.33 50.922 12.744 53.806 11.497L53.012 9.661ZM44.524 14.111C42.944 14.961 41.321 15.709 39.661 16.49C38.011 17.266 36.334 18.07 34.706 19.013L35.709 20.743C37.256 19.848 38.864 19.075 40.512 18.3C42.149 17.53 43.832 16.754 45.472 15.873L44.524 14.112V14.111ZM34.707 19.013C29.1267 22.2439 23.9317 26.0987 19.222 30.503L20.588 31.965C25.1866 27.6639 30.2591 23.8994 35.708 20.744L34.707 19.014V19.013ZM19.222 30.503C13.588 35.77 9.696 42.071 5.526 48.29L7.187 49.404C11.419 43.094 15.165 37.036 20.589 31.966L19.223 30.504L19.222 30.503ZM5.526 48.29C1.953 53.616 -0.567999 59.079 0.110001 65.942L2.1 65.745C1.489 59.555 3.724 54.567 7.186 49.402L5.525 48.29H5.526ZM0.110001 65.942C0.690001 71.811 4.392 76.794 7.245 81.245L8.929 80.165C5.939 75.501 2.621 71.012 2.099 65.745L0.109001 65.942H0.110001ZM7.245 81.245C8.927 83.869 11.168 85.551 13.55 86.895C14.737 87.563 15.97 88.155 17.187 88.731C18.414 89.312 19.62 89.878 20.799 90.511L21.745 88.749C20.512 88.087 19.255 87.498 18.044 86.924C16.824 86.346 15.649 85.782 14.533 85.152C12.309 83.899 10.37 82.414 8.929 80.165L7.245 81.245ZM20.8 90.51C23.0754 91.7322 25.4817 92.6933 27.973 93.375L28.503 91.447C26.1561 90.8045 23.8894 89.8987 21.746 88.747L20.8 90.51ZM27.565 93.151C28.15 93.682 28.746 94.191 29.354 94.667L30.587 93.093C30.011 92.6391 29.4516 92.1645 28.91 91.67L27.565 93.151ZM29.353 94.667C35.185 99.243 41.631 99.197 48.22 99.84L48.415 97.85C41.547 97.18 35.847 97.22 30.588 93.094L29.353 94.667ZM48.221 99.84C55.779 100.578 64.395 98.56 71.609 97.31L71.268 95.34C63.848 96.625 55.623 98.553 48.415 97.85L48.221 99.84ZM71.609 97.31C78.519 96.113 85.237 94.017 91.655 91.218L90.855 89.385C84.57 92.126 78.005 94.172 71.268 95.34L71.609 97.31ZM91.655 91.218C97.496 88.67 103.573 86.104 108.964 82.378L107.827 80.733C102.628 84.325 96.749 86.815 90.856 89.385L91.656 91.218H91.655ZM108.964 82.378C114.721 78.403 119.126 73.454 123.381 68.09L121.814 66.847C117.598 72.163 113.339 76.927 107.827 80.733L108.964 82.379V82.378ZM123.381 68.09C124.48 66.705 125.679 65.353 126.895 63.903C128.094 62.473 129.28 60.981 130.262 59.405L128.565 58.347C127.659 59.8 126.546 61.207 125.363 62.617C124.197 64.007 122.932 65.437 121.814 66.847L123.381 68.09ZM130.262 59.405C131.257 57.809 132.041 56.053 132.744 54.31C133.466 52.524 134.067 50.847 134.77 49.192L132.929 48.41C132.23 50.058 131.562 51.898 130.89 53.562C130.2 55.27 129.467 56.899 128.565 58.347L130.262 59.405ZM134.77 49.191C135.07 48.485 135.368 47.776 135.659 47.066L133.809 46.308C133.522 47.008 133.228 47.707 132.929 48.41L134.77 49.191ZM135.528 47.294C137.82 44.3072 139.789 41.0859 141.402 37.684L139.593 36.829C138.041 40.1034 136.146 43.204 133.94 46.079L135.528 47.294ZM141.402 37.684C142.544 35.264 143.862 32.538 144.238 29.656L142.255 29.397C141.927 31.909 140.768 34.341 139.593 36.829L141.402 37.683V37.684ZM144.238 29.656C144.764 25.631 144.744 21.354 144.982 17.439L142.985 17.318C142.736 21.428 142.77 25.453 142.255 29.398L144.238 29.656ZM144.982 17.439C145.156 14.559 144.067 11.807 142.437 9.472C140.804 7.134 138.584 5.145 136.359 3.757L135.3 5.455C137.323 6.716 139.336 8.525 140.797 10.618C142.26 12.713 143.124 15.024 142.985 17.318L144.982 17.44V17.439Z" fill="#FFCD1F"/>
</g>
<defs>
<clipPath id="clip0_501_515">
<rect width="145" height="100" fill="white"/>
</clipPath>
</defs>
</svg>
